<svg xmlns="http://www.w3.org/2000/svg" xmlns:xlink="http://www.w3.org/1999/xlink"><symbol id="ascending" viewBox="0 0 140 274"><path d="M137.212 76.49l-6.731 6.71a9.54 9.54 0 01-13.463 0l-32.74-32.637V264.51c0 5.24-4.261 9.489-9.519 9.489H65.24c-5.257 0-9.52-4.248-9.52-9.49V50.565L22.982 83.2a9.537 9.537 0 01-13.462 0l-6.732-6.71a9.47 9.47 0 010-13.42L63.27 2.78A9.504 9.504 0 0169.999 0c2.437 0 4.874.926 6.732 2.78l60.481 60.29a9.467 9.467 0 010 13.42z" fill-rule="nonzero"/></symbol><symbol id="cancel" viewBox="0 0 329.269 329"><path d="M194.8 164.77L323.013 36.555c8.343-8.34 8.343-21.825 0-30.164-8.34-8.34-21.825-8.34-30.164 0L164.633 134.605 36.422 6.391c-8.344-8.34-21.824-8.34-30.164 0-8.344 8.34-8.344 21.824 0 30.164l128.21 128.215L6.259 292.984c-8.344 8.34-8.344 21.825 0 30.164a21.266 21.266 0 0015.082 6.25c5.46 0 10.922-2.09 15.082-6.25l128.21-128.214 128.216 128.214a21.273 21.273 0 0015.082 6.25c5.46 0 10.922-2.09 15.082-6.25 8.343-8.34 8.343-21.824 0-30.164zm0 0"/></symbol><symbol id="child" viewBox="0 0 512 512"><path d="M298.102 479.277c-5.124-2.055-10.948.435-13.003 5.562-1.717 4.283-6.071 7.161-10.833 7.161h-36.532c-4.762 0-9.116-2.878-10.833-7.161-2.055-5.127-7.876-7.612-13.003-5.562-5.126 2.056-7.616 7.877-5.561 13.003 4.803 11.98 16.341 19.72 29.397 19.72h36.532c13.056 0 24.594-7.74 29.396-19.72 2.056-5.126-.434-10.947-5.56-13.003z"/><path d="M415.541 427.762a49.337 49.337 0 00-23.677-33.288 49.876 49.876 0 006.267-6.089 49.758 49.758 0 0011.504-39.903c-3.509-23.324-13.436-45.117-28.707-63.024a126.351 126.351 0 00-41.217-31.803c19.249-20.534 31.057-48.124 31.057-78.423-.001-52.434-35.348-96.769-83.465-110.428 6.554-7.825 10.13-17.601 10.13-27.931C297.434 16.541 280.892 0 260.561 0h-.003c-8.207 0-15.894 2.669-21.643 7.514-6.354 5.354-9.853 12.879-9.854 21.188 0 5.522 4.477 10 10 10 5.522 0 10-4.477 10-10 0-2.379.922-4.362 2.742-5.896 2.148-1.81 5.257-2.807 8.756-2.807h.001c9.304 0 16.874 7.568 16.874 16.872a23.437 23.437 0 01-6.91 16.682 23.436 23.436 0 01-16.679 6.909h-.002c-.245 0-.485.019-.725.037-61.956 1.536-111.885 52.413-111.886 114.732 0 30.299 11.808 57.889 31.057 78.423a126.344 126.344 0 00-41.216 31.803c-15.271 17.907-25.198 39.7-28.708 63.023a49.763 49.763 0 0011.504 39.904 49.806 49.806 0 006.267 6.089 49.334 49.334 0 00-23.677 33.288 49.34 49.34 0 009.584 39.816l21.415 27.365c8.652 11.056 21.795 17.001 35.126 17.001 7.568 0 15.198-1.916 22.1-5.901 19.061-11.005 27.229-34.697 19-55.109l-12.991-32.228a49.27 49.27 0 00-3.039-6.202H261c5.523 0 10-4.478 10-10s-4.477-10-10-10h-92.356v-21.081a4.928 4.928 0 014.923-4.923h164.867a4.929 4.929 0 014.923 4.923v22.464a49.334 49.334 0 00-22.051 24.819l-12.991 32.227c-8.229 20.413-.061 44.105 19 55.11 6.903 3.985 14.53 5.901 22.1 5.901 13.33 0 26.475-5.946 35.127-17.001l21.414-27.365a49.332 49.332 0 009.585-39.815zm-254.31-252.53c.001-52.255 42.515-94.768 94.769-94.769 52.254.001 94.768 42.514 94.769 94.769 0 52.255-42.513 94.768-94.769 94.769-52.255-.001-94.769-42.514-94.769-94.769zm10.915 250.951l12.991 32.229c4.525 11.227.031 24.258-10.452 30.311-10.482 6.053-24.015 3.43-31.476-6.105l-21.415-27.365a29.343 29.343 0 01-5.701-23.683 29.348 29.348 0 0114.143-19.836 29.352 29.352 0 0124.249-2.33 29.351 29.351 0 0117.661 16.779zM338.5 326.5c-5.523 0-10 4.478-10 10v10H183.566v-10c0-5.522-4.477-10-10-10s-10 4.478-10 10v12.101c-8.777 3.861-14.923 12.635-14.923 22.822v14.121a29.771 29.771 0 01-19.617-10.207 29.785 29.785 0 01-6.884-23.88c5.725-38.053 31.097-69.494 66.716-83.206C207.75 281.925 230.948 290 256 290s48.25-8.075 67.142-21.749c35.619 13.712 60.991 45.153 66.716 83.206a29.782 29.782 0 01-6.885 23.88 29.769 29.769 0 01-19.617 10.207v-14.121c0-10.161-6.115-18.916-14.856-22.792V336.5c0-5.522-4.477-10-10-10zm51.706 128.752l-21.414 27.365c-7.461 9.533-20.992 12.157-31.476 6.105-10.484-6.053-14.977-19.084-10.451-30.313l12.991-32.228a29.348 29.348 0 0117.661-16.779 29.35 29.35 0 0124.249 2.331 29.351 29.351 0 0114.143 19.836 29.351 29.351 0 01-5.703 23.683z"/><path d="M307.79 395.43c-1.86-1.86-4.44-2.93-7.07-2.93s-5.21 1.069-7.07 2.93a10.077 10.077 0 00-2.93 7.07c0 2.64 1.07 5.21 2.93 7.069 1.86 1.87 4.44 2.931 7.07 2.931s5.21-1.061 7.07-2.931c1.86-1.859 2.93-4.439 2.93-7.069s-1.07-5.21-2.93-7.07zM283.57 209.382c-4.29-3.478-10.587-2.817-14.065 1.472-3.323 4.1-8.246 6.451-13.505 6.451a17.32 17.32 0 01-13.505-6.451c-3.477-4.291-9.774-4.948-14.065-1.472-4.291 3.477-4.95 9.774-1.472 14.065 7.138 8.807 17.724 13.857 29.042 13.857s21.905-5.051 29.042-13.857c3.478-4.291 2.819-10.588-1.472-14.065zM230.731 168.16c-9.071-9.071-23.831-9.071-32.904 0-3.905 3.905-3.906 10.236 0 14.142 3.905 3.906 10.237 3.906 14.142.001a3.272 3.272 0 014.62 0 9.972 9.972 0 007.071 2.929 9.97 9.97 0 007.071-2.929c3.905-3.905 3.905-10.237 0-14.143zM314.173 168.159c-9.072-9.07-23.833-9.07-32.904 0-3.905 3.905-3.905 10.237 0 14.143a9.966 9.966 0 007.071 2.929 9.97 9.97 0 007.071-2.929 3.272 3.272 0 014.62 0c3.905 3.906 10.237 3.905 14.142-.001 3.905-3.905 3.905-10.236 0-14.142z"/></symbol><symbol id="descending" viewBox="0 0 140 274"><path d="M137.212 197.51l-6.731-6.71a9.54 9.54 0 00-13.463 0l-32.74 32.637V9.49C84.278 4.25 80.017 0 74.76 0H65.24c-5.257 0-9.52 4.248-9.52 9.49v213.946L22.982 190.8a9.537 9.537 0 00-13.462 0l-6.732 6.71a9.47 9.47 0 000 13.42l60.482 60.29a9.504 9.504 0 006.73 2.78 9.503 9.503 0 006.732-2.78l60.481-60.29a9.467 9.467 0 000-13.42z" fill-rule="nonzero"/></symbol><symbol id="disabled" viewBox="0 0 512 512"><path d="M224 128v96h64v-32h-32v-64z"/><path d="M160 128c0-53.019 42.981-96 96-96s96 42.981 96 96v96h32v-96C384 57.308 326.692 0 256 0S128 57.308 128 128v101.328l48 64V324.8l-176 64V512h128v-32H32v-68.8l176-64v-64.528l-48-64V128zM160 480h32v32h-32zM224 480h32v32h-32z"/><path d="M384 256c-70.692 0-128 57.308-128 128s57.308 128 128 128 128-57.308 128-128c-.079-70.66-57.34-127.921-128-128zm0 224c-53.019 0-96-42.981-96-96s42.981-96 96-96 96 42.981 96 96c-.053 52.997-43.003 95.947-96 96z"/><path d="M320 368h128v32H320z"/></symbol><symbol id="download" viewBox="0 0 512 512"><path d="M256 285c11.046 0 20-8.954 20-20V20c0-11.046-8.954-20-20-20s-20 8.954-20 20v245c0 11.046 8.954 20 20 20z"/><path d="M212.472 367.324l.101.102c11.701 11.701 27.069 17.549 42.437 17.549 15.356 0 30.71-5.842 42.388-17.521L408.114 257.17c7.826-7.795 7.851-20.458.056-28.284-7.795-7.825-20.458-7.851-28.284-.056L269.142 339.142A19.872 19.872 0 01255 345a19.869 19.869 0 01-14.102-5.817L132.243 228.959c-7.754-7.867-20.418-7.957-28.284-.203s-7.957 20.417-.203 28.284l108.716 110.284zM492 412c-11.046 0-20 8.954-20 20 0 22.056-17.944 40-40 40H80c-22.056 0-40-17.944-40-40 0-11.046-8.954-20-20-20s-20 8.954-20 20c0 44.112 35.888 80 80 80h352c44.112 0 80-35.888 80-80 0-11.046-8.954-20-20-20z"/></symbol><symbol id="edit" viewBox="0 0 50 50"><g fill-rule="nonzero"><path d="M46.093 31.372c-.687 0-1.244.56-1.244 1.25V43.72c-.002 2.07-1.67 3.748-3.73 3.75h-34.9c-2.06-.002-3.729-1.68-3.731-3.75V11.146c.002-2.07 1.67-3.747 3.73-3.75h11.044c.687 0 1.244-.56 1.244-1.25s-.557-1.25-1.244-1.25H6.22C2.786 4.9.004 7.696 0 11.146v32.575c.004 3.45 2.786 6.246 6.219 6.25h34.9c3.432-.004 6.214-2.8 6.218-6.25v-11.1c0-.69-.557-1.25-1.244-1.25z"/><path d="M46.844 1.68a5.577 5.577 0 00-7.915 0l-22.19 22.301a1.251 1.251 0 00-.32.55L13.503 35.12c-.12.434.002.899.319 1.217.317.319.78.441 1.211.321l10.535-2.933c.207-.057.395-.168.548-.32l22.189-22.302a5.651 5.651 0 000-7.955l-1.46-1.467zM19.45 24.793L37.61 6.542l5.858 5.886L25.306 30.68l-5.857-5.887zm-1.17 2.36l4.68 4.703-6.473 1.802 1.793-6.505zM46.545 9.334l-1.319 1.326-5.857-5.887 1.32-1.325a3.098 3.098 0 014.396 0l1.46 1.467a3.14 3.14 0 010 4.42z"/></g></symbol><symbol id="employees" viewBox="0 0 480 480"><g fill-rule="nonzero"><path d="M240 0c-26.51 0-48 21.49-48 48s21.49 48 48 48c26.499-.026 47.974-21.501 48-48 0-26.51-21.49-48-48-48zm0 80c-17.673 0-32-14.327-32-32 0-17.673 14.327-32 32-32 17.673 0 32 14.327 32 32 0 17.673-14.327 32-32 32zM272 104h-1.888l-1.688.84a63.773 63.773 0 01-56.848 0l-1.688-.84H208c-22.08.026-39.974 17.92-40 40v48c0 13.255 10.745 24 24 24h96c13.255 0 24-10.745 24-24v-48c-.026-22.08-17.92-39.974-40-40zm24 88a8 8 0 01-8 8h-96a8 8 0 01-8-8v-48c.002-12.592 9.735-23.042 22.296-23.936a80.061 80.061 0 0067.408 0c12.56.894 22.294 11.344 22.296 23.936v48zM408 264c-26.51 0-48 21.49-48 48s21.49 48 48 48 48-21.49 48-48c-.026-26.499-21.501-47.974-48-48zm0 80c-17.673 0-32-14.327-32-32 0-17.673 14.327-32 32-32 17.673 0 32 14.327 32 32 0 17.673-14.327 32-32 32zM440 368h-1.888l-1.688.8a63.78 63.78 0 01-56.848 0l-1.688-.8H376c-22.08.026-39.974 17.92-40 40v48c0 13.255 10.745 24 24 24h96c13.255 0 24-10.745 24-24v-48c-.026-22.08-17.92-39.974-40-40zm24 88a8 8 0 01-8 8h-96a8 8 0 01-8-8v-48c.002-12.592 9.735-23.042 22.296-23.936a80.061 80.061 0 0067.408 0c12.561.894 22.294 11.344 22.296 23.936v48zM72 264c-26.51 0-48 21.49-48 48s21.49 48 48 48 48-21.49 48-48c-.026-26.499-21.501-47.974-48-48zm0 80c-17.673 0-32-14.327-32-32 0-17.673 14.327-32 32-32 17.673 0 32 14.327 32 32 0 17.673-14.327 32-32 32zM104 368h-1.888l-1.688.8a63.78 63.78 0 01-56.848 0l-1.688-.8H40c-22.08.026-39.974 17.92-40 40v48c0 13.255 10.745 24 24 24h96c13.255 0 24-10.745 24-24v-48c-.026-22.08-17.92-39.974-40-40zm24 88a8 8 0 01-8 8H24a8 8 0 01-8-8v-48c.002-12.592 9.735-23.042 22.296-23.936a80.061 80.061 0 0067.408 0c12.561.894 22.294 11.344 22.296 23.936v48zM319.372 406.276l-.012-.028a8 8 0 00-10.495-4.224 177.456 177.456 0 01-114.104 7.856l7.488-2.2a8.002 8.002 0 005.432-9.928 8.002 8.002 0 00-9.928-5.432l-32 9.384c-.12 0-.208.136-.32.176a7.928 7.928 0 00-2.064 1.144c-.278.15-.545.318-.8.504a7.75 7.75 0 00-1.96 2.72 8.012 8.012 0 00-.608 3.304c.195 1.083.462 2.152.8 3.2.048.112 0 .24.088.352l16 30.616a8.004 8.004 0 1014.192-7.408l-6.512-12.448a192.565 192.565 0 00130.552-7.104 8 8 0 004.251-10.484zM453.656 210.344a8 8 0 00-11.312 0l-11.32 11.32c-6.624-70.07-51.111-130.876-115.888-158.4a8 8 0 10-6.272 14.72c58.11 24.697 98.504 78.669 105.816 141.384l-9.024-9.024a8 8 0 00-11.312 11.312l24 24a8 8 0 0011.328 0l24-24a8 8 0 00-.016-11.312zM175.768 69.272a7.439 7.439 0 00-.208-1.384c0-.072-.088-.12-.12-.2-.032-.08 0-.136 0-.2a7.673 7.673 0 00-.752-1.104 8.076 8.076 0 00-.912-1.32 7.508 7.508 0 00-1.56-1.064 7.037 7.037 0 00-.896-.648l-32-14.616a8 8 0 00-6.64 14.544l16.568 7.576C86.875 104.237 47.955 169.256 48 240a8 8 0 0016 0c-.04-62.293 32.901-119.952 86.584-151.552l-5.784 12.088a8 8 0 003.736 10.664 7.876 7.876 0 003.464.8 8 8 0 007.2-4.536l16-33.384c0-.08 0-.168.064-.248a7.693 7.693 0 00.432-1.696c.137-.431.239-.872.304-1.32a7.977 7.977 0 00-.232-1.544z"/></g></symbol><symbol id="eye" viewBox="0 0 511.999 511.999"><path d="M508.745 246.041c-4.574-6.257-113.557-153.206-252.748-153.206S7.818 239.784 3.249 246.035a16.896 16.896 0 000 19.923c4.569 6.257 113.557 153.206 252.748 153.206s248.174-146.95 252.748-153.201a16.875 16.875 0 000-19.922zM255.997 385.406c-102.529 0-191.33-97.533-217.617-129.418 26.253-31.913 114.868-129.395 217.617-129.395 102.524 0 191.319 97.516 217.617 129.418-26.253 31.912-114.868 129.395-217.617 129.395z"/><path d="M255.997 154.725c-55.842 0-101.275 45.433-101.275 101.275s45.433 101.275 101.275 101.275S357.272 311.842 357.272 256s-45.433-101.275-101.275-101.275zm0 168.791c-37.23 0-67.516-30.287-67.516-67.516s30.287-67.516 67.516-67.516 67.516 30.287 67.516 67.516-30.286 67.516-67.516 67.516z"/></symbol><symbol id="filter" viewBox="0 0 511 512"><path d="M492.477 0H20.5C9.453 0 .5 8.953.5 20c0 55.695 23.875 108.867 65.504 145.871l87.59 77.852a71.265 71.265 0 0123.898 53.222v195.032c0 15.937 17.813 25.492 31.09 16.636l117.996-78.66a20.005 20.005 0 008.906-16.64V296.945a71.265 71.265 0 0123.899-53.222l87.586-77.852C488.598 128.867 512.473 75.695 512.473 20c0-11.047-8.953-20-19.996-20zm-72.082 135.973l-87.586 77.855c-23.72 21.086-37.325 51.379-37.325 83.113V402.61l-77.996 51.996v-157.66a111.301 111.301 0 00-37.324-83.117l-87.586-77.851c-28.07-24.957-45.988-59.153-50.785-95.98H471.18c-4.797 36.827-22.711 71.023-50.785 95.976zm0 0"/></symbol><symbol id="filtered" viewBox="0 0 513 512"><path d="M492.477 0H20.5C9.453 0 .5 8.953.5 20c0 55.695 23.875 108.867 65.504 145.871l87.59 77.852a71.265 71.265 0 0123.898 53.222v195.032c0 15.937 17.813 25.492 31.09 16.636l117.996-78.66a20.005 20.005 0 008.906-16.64V296.945a71.265 71.265 0 0123.899-53.222l87.586-77.852C488.598 128.867 512.473 75.695 512.473 20c0-11.047-8.953-20-19.996-20z" fill-rule="nonzero"/></symbol><symbol id="fired" viewBox="0 0 512 512"><path d="M407.672 280.596c-21.691-15.587-45.306-27.584-70.182-35.778C370.565 219.986 392 180.449 392 136 392 61.01 330.991 0 256 0S120 61.01 120 136c0 44.504 21.488 84.084 54.633 108.911-30.368 9.998-58.863 25.555-83.803 46.069-45.732 37.617-77.529 90.086-89.532 147.743-3.762 18.066.745 36.622 12.363 50.908C25.222 503.847 42.365 512 60.693 512H267c11.046 0 20-8.954 20-20s-8.954-20-20-20H60.693c-8.538 0-13.689-4.766-15.999-7.606-3.989-4.905-5.533-11.29-4.236-17.519 20.756-99.695 108.691-172.521 210.24-174.977a137.229 137.229 0 0010.643-.002c44.466 1.052 86.883 15.236 122.988 41.182 8.969 6.446 21.467 4.399 27.913-4.569 6.446-8.97 4.4-21.467-4.57-27.913zm-146.803-48.718a263.128 263.128 0 00-9.709.001C200.465 229.35 160 187.312 160 136c0-52.935 43.065-96 96-96s96 43.065 96 96c0 51.302-40.45 93.334-91.131 95.878z"/><path d="M455.285 427l50.857-50.857c7.811-7.811 7.811-20.475 0-28.285-7.811-7.811-20.474-7.811-28.284 0L427 398.715l-50.858-50.858c-7.811-7.811-20.474-7.811-28.284 0-7.81 7.811-7.811 20.475 0 28.285L398.715 427l-50.857 50.857c-7.811 7.811-7.811 20.475 0 28.285A19.933 19.933 0 00362 512a19.936 19.936 0 0014.142-5.857L427 455.285l50.858 50.858A19.936 19.936 0 00492 512a19.936 19.936 0 0014.142-5.857c7.811-7.811 7.811-20.475 0-28.285L455.285 427z"/></symbol><symbol id="offices" viewBox="0 0 414.4 414.4"><path d="M397.6 249.2h-32.8v-42.4c0-4.8-3.2-8-8-8H215.2v-34.4H248c9.6 0 16.8-7.2 16.8-16.8V66.8c0-9.6-7.2-16.8-16.8-16.8h-81.6c-9.6 0-16.8 7.2-16.8 16.8v81.6c0 9.6 7.2 16.8 16.8 16.8h32.8v33.6H57.6c-4.8 0-8 3.2-8 8v42.4H16.8C7.2 249.2 0 256.4 0 266v81.6c0 9.6 7.2 16.8 16.8 16.8h81.6c9.6 0 16.8-7.2 16.8-16.8V266c0-9.6-7.2-16.8-16.8-16.8H65.6v-34.4h133.6v34.4h-32.8c-9.6 0-16.8 7.2-16.8 16.8v81.6c0 9.6 7.2 16.8 16.8 16.8H248c9.6 0 16.8-7.2 16.8-16.8V266c0-9.6-7.2-16.8-16.8-16.8h-32.8v-34.4h133.6v34.4H316c-9.6 0-16.8 7.2-16.8 16.8v81.6c0 9.6 7.2 16.8 16.8 16.8h81.6c9.6 0 16.8-7.2 16.8-16.8V266c0-9.6-8-16.8-16.8-16.8zM99.2 266c-.8-.8 0-.8 0 0v81.6c0 .8 0 .8-.8.8H16.8c-.8 0-.8 0-.8-.8V266c0-.8 0-.8.8-.8l82.4.8zm149.6 0c-.8-.8 0-.8 0 0v81.6c0 .8 0 .8-.8.8h-81.6c-.8 0-.8 0-.8-.8V266c0-.8 0-.8.8-.8l82.4.8zm-83.2-118.4c.8.8 0 .8 0 0V66.8c0-.8 0-.8.8-.8H248c.8 0 .8 0 .8.8v81.6c0 .8 0 .8-.8.8l-82.4-1.6zm232.8 199.2c0 .8-.8.8 0 0l-82.4.8c-.8 0-.8 0-.8-.8V266c0-.8 0-.8.8-.8h81.6c.8 0 .8 0 .8.8v80.8z"/></symbol><symbol id="pause" viewBox="0 0 39 48"><g fill-rule="nonzero"><path d="M13.991 40.976a6.631 6.631 0 01-13.262 0V6.631a6.631 6.631 0 0113.262 0v34.345zM38.877 40.976a6.631 6.631 0 01-13.262 0V6.631a6.631 6.631 0 0113.262 0v34.345z"/></g></symbol><symbol id="play" viewBox="0 0 39 48"><path d="M36.126 19.543L7.281 1.29C5.95.446 4.607 0 3.491 0 1.334 0 0 1.6 0 4.278v39.45C0 46.403 1.333 48 3.484 48c1.118 0 2.438-.447 3.774-1.293l28.858-18.252C37.972 27.279 39 25.697 39 23.998c0-1.698-1.016-3.28-2.874-4.455z" fill-rule="nonzero"/></symbol><symbol id="plus" viewBox="0 0 55 55"><path d="M52.852 25.352H29.648V2.148a2.148 2.148 0 10-4.296 0v23.204H2.148a2.148 2.148 0 100 4.296h23.204v23.204a2.148 2.148 0 104.296 0V29.648h23.204a2.148 2.148 0 100-4.296z" fill-rule="nonzero"/></symbol><symbol id="positions" viewBox="0 0 24 24"><path d="M21.5 22h-19C1.1 22 0 20.9 0 19.5v-12C0 6.1 1.1 5 2.5 5h19C22.9 5 24 6.1 24 7.5v12c0 1.4-1.1 2.5-2.5 2.5zM2.5 6C1.7 6 1 6.7 1 7.5v12c0 .8.7 1.5 1.5 1.5h19c.8 0 1.5-.7 1.5-1.5v-12c0-.8-.7-1.5-1.5-1.5z"/><path d="M15.5 6c-.3 0-.5-.2-.5-.5v-2c0-.3-.2-.5-.5-.5h-5c-.3 0-.5.2-.5.5v2c0 .3-.2.5-.5.5S8 5.8 8 5.5v-2C8 2.7 8.7 2 9.5 2h5c.8 0 1.5.7 1.5 1.5v2c0 .3-.2.5-.5.5zM23.5 12H.5c-.3 0-.5-.2-.5-.5s.2-.5.5-.5h23c.3 0 .5.2.5.5s-.2.5-.5.5z"/><path d="M6.5 14.2c-.3 0-.5-.2-.5-.5V9.5c0-.3.2-.5.5-.5s.5.2.5.5v4.2c0 .2-.2.5-.5.5zM17.5 14.2c-.3 0-.5-.2-.5-.5V9.5c0-.3.2-.5.5-.5s.5.2.5.5v4.2c0 .2-.2.5-.5.5z"/></symbol><symbol id="remove" viewBox="0 0 50 50"><g fill-rule="nonzero"><path d="M25 50C11.214 50 0 38.786 0 25S11.214 0 25 0s25 11.214 25 25-11.214 25-25 25zm0-46.875C12.938 3.125 3.125 12.938 3.125 25S12.938 46.875 25 46.875 46.875 37.062 46.875 25 37.062 3.125 25 3.125z"/><path d="M17.267 34.296a1.563 1.563 0 01-1.104-2.668l15.468-15.47a1.563 1.563 0 012.21 2.21l-15.468 15.47a1.564 1.564 0 01-1.106.458z"/><path d="M32.733 34.296c-.4 0-.8-.152-1.104-.458L16.161 18.37a1.562 1.562 0 112.21-2.21l15.468 15.468a1.562 1.562 0 01-1.106 2.667z"/></g></symbol><symbol id="salaries" viewBox="0 0 128 128"><path d="M126.25 43.56h-8.5v-8.5a1.749 1.749 0 00-1.75-1.75h-8.5V24.8a1.749 1.749 0 00-1.75-1.75h-104A1.749 1.749 0 000 24.8v57.89a1.75 1.75 0 001.75 1.75h8.5v8.5A1.749 1.749 0 0012 94.693h8.5v8.5a1.749 1.749 0 001.75 1.75h104A1.749 1.749 0 00128 103.2V45.31a1.75 1.75 0 00-1.75-1.75zM3.5 26.553h100.492V80.94H3.5zM13.754 84.44h91.988a1.75 1.75 0 001.75-1.75V36.807h6.754v54.386H13.754zM124.5 101.447H24.008v-6.754H116a1.749 1.749 0 001.75-1.75V47.06h6.75z"/><path d="M16.867 74.69a1.749 1.749 0 001.75 1.75h70.258a1.749 1.749 0 001.75-1.75 7.125 7.125 0 017.117-7.117 1.749 1.749 0 001.75-1.75V41.67a1.749 1.749 0 00-1.75-1.75 7.124 7.124 0 01-7.117-7.12 1.749 1.749 0 00-1.75-1.75H18.617a1.749 1.749 0 00-1.75 1.75 7.124 7.124 0 01-7.117 7.12A1.749 1.749 0 008 41.67v24.153a1.749 1.749 0 001.75 1.75 7.125 7.125 0 017.117 7.117zM11.5 43.275a10.643 10.643 0 008.723-8.722h67.046a10.643 10.643 0 008.723 8.722v20.943a10.643 10.643 0 00-8.723 8.722H20.223a10.643 10.643 0 00-8.723-8.722z"/><path d="M57.012 59.936H46.48a1.75 1.75 0 000 3.5H52v3.254a1.75 1.75 0 003.5 0v-3.254h1.516a5.756 5.756 0 005.75-5.75v-3.94A1.75 1.75 0 0061.012 52H48.23v-2.193a2.253 2.253 0 012.25-2.25h10.532a1.75 1.75 0 000-3.5H55.5V40.8a1.75 1.75 0 00-3.5 0v3.254h-1.52a5.757 5.757 0 00-5.75 5.75v3.939a1.75 1.75 0 001.75 1.75h12.782v2.19a2.253 2.253 0 01-2.25 2.253zM75.244 59.082a5.336 5.336 0 10-5.336-5.336 5.342 5.342 0 005.336 5.336zm0-7.172a1.836 1.836 0 11-1.836 1.836 1.837 1.837 0 011.836-1.836zM32.248 59.082a5.336 5.336 0 10-5.336-5.336 5.342 5.342 0 005.336 5.336zm0-7.172a1.836 1.836 0 11-1.836 1.836 1.837 1.837 0 011.836-1.836z"/></symbol><symbol id="services" viewBox="0 0 571 570"><g fill-rule="nonzero"><path d="M1.527 52.246l37.985 66.469a9.488 9.488 0 005.933 4.5l35.438 8.86 121.543 121.542 13.43-13.426L92.41 116.75a9.47 9.47 0 00-4.406-2.5l-34.05-8.543-32.34-56.625L49.34 21.355l56.648 32.372 8.547 34.05a9.47 9.47 0 002.496 4.414l123.446 123.446 13.425-13.43L132.36 80.664 123.5 45.246a9.511 9.511 0 00-4.5-5.945L52.527 1.32a9.496 9.496 0 00-11.394 1.527L3.153 40.832a9.495 9.495 0 00-1.626 11.414zM396.313 187.145L187.41 396.05l-13.43-13.43L382.887 173.72zM150.848 403.441a9.493 9.493 0 00-8.141-4.605H85.734a9.486 9.486 0 00-8.136 4.605l-28.489 47.477a9.495 9.495 0 000 9.781l28.489 47.477a9.495 9.495 0 008.136 4.605h56.973a9.501 9.501 0 008.14-4.605l28.485-47.477a9.495 9.495 0 000-9.781l-28.484-47.477zm-13.512 90.348H91.109L68.32 455.81l22.79-37.985h46.226l22.789 37.985-22.79 37.98z"/><path d="M456.063 227.914c62.714.211 113.73-50.46 113.94-113.176a113.589 113.589 0 00-3.487-28.308c-1.266-5.09-6.418-8.188-11.508-6.922a9.522 9.522 0 00-4.414 2.496l-59.11 59.07-46.898-15.629-15.64-46.886 59.109-59.121a9.495 9.495 0 00-4.453-15.934c-60.82-15.402-122.606 21.414-138.008 82.23a113.327 113.327 0 00-3.477 28.23c.024 7.477.793 14.93 2.309 22.25L136.469 344.169a112.023 112.023 0 00-22.246-2.309C51.289 341.86.273 392.875.273 455.81c0 62.93 51.016 113.945 113.95 113.945 62.93 0 113.945-51.016 113.945-113.945a111.742 111.742 0 00-2.309-22.25l49.786-49.786 21.773 21.774a9.499 9.499 0 0013.43 0l4.746-4.75c4.164-4.137 10.894-4.137 15.058 0 4.16 4.148 4.168 10.883.02 15.043l-.02.02-4.746 4.745c-3.707 3.707-3.707 9.72 0 13.426L439.18 547.305c29.793 30.066 78.316 30.285 108.382.492 30.063-29.793 30.282-78.32.489-108.383-.16-.164-.324-.328-.489-.492L434.29 325.652c-3.707-3.707-9.719-3.707-13.426 0l-4.746 4.746c-4.168 4.141-10.894 4.141-15.062 0-4.157-4.148-4.168-10.882-.02-15.039.008-.007.016-.011.02-.02l4.75-4.75c3.707-3.706 3.707-9.718 0-13.425l-21.774-21.773 49.785-49.786a111.733 111.733 0 0022.247 2.31zm37.308 322.852a57.7 57.7 0 01-20.195-3.684l74.16-74.164c11.191 29.77-3.867 62.973-33.637 74.164a57.6 57.6 0 01-20.328 3.684zM385.797 303.973c-10.516 12.543-8.867 31.238 3.676 41.75 11.023 9.238 27.09 9.23 38.101-.028l106.563 106.657c1.156 1.16 2.238 2.382 3.285 3.625l-81.188 81.187a55.28 55.28 0 01-3.629-3.285L345.961 427.227c10.516-12.543 8.867-31.239-3.676-41.75-11.023-9.243-27.094-9.23-38.105.023l-15.192-15.191 81.614-81.493 15.195 15.157zm38.344-95.504L208.73 423.836a9.51 9.51 0 00-2.508 9.023c13.027 51.16-17.887 103.196-69.051 116.22-51.16 13.026-103.195-17.888-116.223-69.052-13.023-51.16 17.89-103.195 69.055-116.222a95.649 95.649 0 0147.168 0 9.58 9.58 0 009.023-2.504l215.36-215.371a9.49 9.49 0 002.496-9.02c-12.938-50.562 17.562-102.039 68.125-114.98a94.55 94.55 0 0129.281-2.766l-50.09 50.11a9.487 9.487 0 00-2.297 9.71l18.989 56.977a9.504 9.504 0 006.011 6l56.977 18.992a9.496 9.496 0 009.71-2.289l50.09-50.09a86.32 86.32 0 01.173 5.39c.265 52.177-41.813 94.688-93.989 94.958a94.602 94.602 0 01-23.918-2.953 9.504 9.504 0 00-9.023 2.496h.05v.004z"/><path d="M491.273 477.578l-13.43 13.43-94.952-94.953 13.425-13.43z"/></g></symbol><symbol id="smev" viewBox="0 0 480 480"><path d="M239.446.022c-8.594 0-17.182.462-25.727 1.383-7.832.8-15.568 2.112-23.2 3.704a219.68 219.68 0 00-4.432.976A239.735 239.735 0 0067.831 72.301a257.357 257.357 0 00-8.8 9.488c-87.06 99.948-76.612 251.548 23.337 338.608 95.688 83.349 239.723 77.803 328.719-12.656a248.136 248.136 0 008.8-9.488 239.597 239.597 0 0059.56-158.232c0-132.549-107.452-240-240.001-239.999zM78.495 84.301c1.264-1.312 2.576-2.568 3.864-3.84 1.488-1.464 2.968-2.936 4.488-4.352 1.336-1.248 2.712-2.448 4.08-3.664 1.544-1.368 3.08-2.736 4.664-4.056 1.392-1.176 2.824-2.304 4.248-3.44 1.6-1.28 3.2-2.56 4.848-3.792a154.97 154.97 0 014.424-3.2c1.656-1.184 3.32-2.4 5.008-3.504a214.122 214.122 0 014.576-3 166.785 166.785 0 015.168-3.2 260.346 260.346 0 0110.056-5.704c1.6-.853 3.2-1.688 4.8-2.504a233.35 233.35 0 015.512-2.68c1.6-.76 3.264-1.52 4.912-2.24 1.88-.8 3.784-1.6 5.688-2.4 1.656-.68 3.304-1.344 4.976-1.984 1.936-.736 3.896-1.424 5.856-2.112 1.672-.584 3.344-1.168 5.04-1.72 1.992-.64 4-1.232 6.016-1.816 1.688-.488 3.36-.992 5.056-1.448.648-.168 1.296-.304 1.944-.472a198.501 198.501 0 00-51.128 83.024 268.7 268.7 0 01-54.816-21.096c.264-.28.488-.56.72-.8zm-11.504 12.88a277.951 277.951 0 0060.712 24.16 415.133 415.133 0 00-16.152 110.68h-95.92a223.516 223.516 0 0151.36-134.84zm0 285.68a223.545 223.545 0 01-51.36-134.84h95.92a415.093 415.093 0 0016.152 110.68 278.14 278.14 0 00-60.712 24.16zm114.736 73.568c-1.616-.408-3.288-.936-4.952-1.424-2.024-.592-4.056-1.184-6.056-1.832a205.317 205.317 0 01-5.016-1.712 190.556 190.556 0 01-5.88-2.12 219.712 219.712 0 01-4.952-1.968c-1.912-.8-3.824-1.6-5.72-2.4a208.937 208.937 0 01-4.872-2.224c-1.864-.88-3.72-1.776-5.6-2.704-1.6-.8-3.2-1.6-4.8-2.472-1.808-.968-3.6-1.96-5.392-2.984-1.6-.888-3.12-1.8-4.664-2.728a195.557 195.557 0 01-5.216-3.256c-1.52-.968-3.04-1.952-4.536-2.96a221.149 221.149 0 01-5.064-3.552c-1.464-1.048-2.928-2.096-4.368-3.2a206.328 206.328 0 01-4.896-3.832c-1.416-1.128-2.824-2.248-4.208-3.408-1.6-1.328-3.144-2.712-4.696-4.088-1.36-1.208-2.728-2.4-4.056-3.632-1.528-1.424-3.008-2.904-4.496-4.368-1.288-1.272-2.6-2.528-3.864-3.832-.232-.248-.456-.504-.688-.744a268.507 268.507 0 0154.816-21.104 198.55 198.55 0 0051.128 83.024c-.648-.168-1.304-.304-1.952-.48zm49.72 6.96c-34.232-4.864-64.24-40.592-83.12-93.352a406.55 406.55 0 0183.12-9.784v103.136zm0-119.136a421.293 421.293 0 00-88.144 10.512 400.211 400.211 0 01-15.752-106.744h103.896v96.232zm0-112.232H127.551a400.13 400.13 0 0115.752-106.744 421.434 421.434 0 0088.144 10.512v96.232zm0-112.232a406.124 406.124 0 01-83.12-9.784c18.88-52.76 48.888-88.488 83.12-93.352v103.136zm180.456-22.608a223.545 223.545 0 0151.36 134.84h-95.92a415.093 415.093 0 00-16.152-110.68 278.24 278.24 0 0060.712-24.16zm-114.8-73.576c1.68.416 3.352.944 5.016 1.432 2.024.592 4.056 1.184 6.056 1.832 1.688.544 3.352 1.128 5.016 1.712 1.968.68 3.936 1.376 5.88 2.12 1.664.632 3.304 1.296 4.952 1.968 1.912.8 3.824 1.6 5.72 2.4 1.632.72 3.256 1.461 4.872 2.224 1.864.88 3.72 1.776 5.6 2.704 1.6.8 3.2 1.6 4.8 2.472 1.808.968 3.6 1.96 5.392 2.984 1.6.888 3.12 1.8 4.664 2.728a195.557 195.557 0 015.216 3.256c1.52.968 3.04 1.952 4.536 2.96a220.35 220.35 0 015.056 3.544 185.57 185.57 0 014.384 3.2c1.648 1.24 3.264 2.528 4.888 3.824 1.408 1.12 2.824 2.24 4.208 3.408 1.6 1.328 3.144 2.712 4.696 4.088 1.36 1.208 2.728 2.4 4.056 3.632 1.528 1.424 3.008 2.904 4.496 4.368 1.288 1.272 2.6 2.528 3.864 3.832.232.248.456.504.688.744a268.507 268.507 0 01-54.816 21.104 198.54 198.54 0 00-51.192-83.016c.648.168 1.304.304 1.952.48zm-49.656-6.952c34.232 4.864 64.24 40.592 83.12 93.352a406.55 406.55 0 01-83.12 9.784V16.653zm0 119.136a421.293 421.293 0 0088.144-10.512 400.211 400.211 0 0115.752 106.744H247.447v-96.232zm0 112.232h103.896a400.13 400.13 0 01-15.752 106.744 421.426 421.426 0 00-88.144-10.512v-96.232zm0 215.368V360.253c27.97.39 55.824 3.669 83.12 9.784-18.88 52.76-48.888 88.488-83.12 93.352zm152.952-67.648c-1.264 1.304-2.568 2.56-3.856 3.832-1.488 1.464-2.976 2.944-4.504 4.368-1.328 1.24-2.696 2.4-4.056 3.64-1.552 1.376-3.096 2.752-4.68 4.08-1.4 1.168-2.824 2.296-4.248 3.432-1.6 1.28-3.2 2.56-4.848 3.792a154.97 154.97 0 01-4.424 3.2c-1.656 1.184-3.32 2.4-5.008 3.504a186.92 186.92 0 01-4.576 2.992 158.284 158.284 0 01-5.176 3.2c-1.6.936-3.128 1.848-4.704 2.752a238.159 238.159 0 01-10.144 5.456 233.35 233.35 0 01-5.512 2.68c-1.6.76-3.264 1.52-4.912 2.24-1.88.8-3.784 1.6-5.688 2.4-1.656.672-3.304 1.344-4.968 1.976-1.952.744-3.912 1.44-5.88 2.12-1.664.584-3.328 1.168-5.016 1.712-2 .648-4 1.24-6.04 1.824-1.672.496-3.352.992-5.04 1.448-.648.168-1.296.304-1.944.472a198.501 198.501 0 0051.128-83.024 268.7 268.7 0 0154.816 21.096c-.264.288-.488.568-.72.808zm11.504-12.88a277.951 277.951 0 00-60.712-24.16 415.133 415.133 0 0016.152-110.68h95.92a223.512 223.512 0 01-51.36 134.84z" fill-rule="nonzero"/></symbol><symbol id="success" viewBox="0 -65 434.677 434"><path d="M152.004 304.344c-5.461 0-10.922-2.09-15.082-6.25L6.258 167.426c-8.344-8.34-8.344-21.824 0-30.164 8.34-8.34 21.82-8.34 30.164 0l115.582 115.582L398.258 6.594c8.34-8.34 21.82-8.34 30.164 0 8.34 8.343 8.34 21.824 0 30.168L167.09 298.094a21.282 21.282 0 01-15.086 6.25zm0 0"/></symbol><symbol id="temp-worker" viewBox="0 0 512 512"><path d="M422 332H90c-49.626 0-90 40.374-90 90v90h512v-90c0-49.626-40.374-90-90-90zm-147.711 60h-36.577l-7.5-30h51.578l-7.501 30zm-63.598 15.611L198.293 482H136V362h63.289l11.402 45.611zM238.707 422h34.586l10 60h-54.586l10-60zm62.602-14.389L312.711 362H376v120h-62.293l-12.398-74.389zM30 422c0-33.084 26.916-60 60-60h16v120H30v-60zm452 60h-76V362h16c33.084 0 60 26.916 60 60v60zM256 302c83.262 0 151-67.738 151-151S339.262 0 256 0 105 67.738 105 151s67.738 151 151 151zm0-272c66.72 0 121 54.28 121 121s-54.28 121-121 121-121-54.28-121-121S189.28 30 256 30z"/><path d="M347 136h-76V60h-30v106h106z"/></symbol><symbol id="thermometer" viewBox="0 0 513 513"><path d="M489.967 22.215c-29.649-29.995-77.026-29.23-105.848-.037l-38.058 38.058c-.03.03-.063.054-.092.083-.03.03-.054.063-.083.092l-42.246 42.246c-.03.03-.063.054-.093.084-.03.03-.055.063-.084.093l-42.244 42.244c-.03.03-.064.055-.094.085-.03.03-.055.063-.085.094L218.798 187.5c-.031.03-.064.055-.095.085-.031.03-.055.064-.085.094l-42.241 42.241c-.031.03-.065.055-.095.086-.03.031-.056.064-.086.095l-42.239 42.24c-.031.031-.065.056-.096.087-.031.031-.056.065-.087.096l-21.241 21.241a44.781 44.781 0 00-13.038 28.822 74.914 74.914 0 01-21.812 48.207l-64.469 64.473c-17.585 17.583-17.589 46.048 0 63.637 17.544 17.541 46.089 17.541 63.634-.001l73.127-73.131a45.085 45.085 0 0134.254-13.129 44.917 44.917 0 0034.113-13.063L489.93 127.992c29.437-29.436 29.5-76.276.037-105.777zM55.636 477.689c-5.849 5.847-15.363 5.846-21.209.001-5.861-5.862-5.862-15.347 0-21.209l46.276-46.279 21.208 21.208-46.275 46.279zm413.081-370.91L197.13 378.365c-3.016 3.016-7.02 4.555-11.289 4.32-39.319-2.1-60.352 25.878-62.718 27.512l-21.277-21.277a104.879 104.879 0 0027.586-64.417 14.797 14.797 0 014.312-9.524l10.726-10.726 21.088 21.088c5.857 5.857 15.355 5.858 21.213 0 5.858-5.858 5.858-15.355 0-21.213l-21.088-21.088 21.209-21.209 21.088 21.088c5.857 5.857 15.355 5.858 21.213 0 5.858-5.858 5.858-15.355 0-21.213l-21.088-21.088 21.209-21.209 21.088 21.088c5.857 5.857 15.355 5.858 21.213 0 5.858-5.858 5.858-15.355 0-21.213l-21.088-21.088 21.209-21.209 21.088 21.088c5.857 5.857 15.355 5.858 21.213 0 5.858-5.858 5.858-15.355 0-21.213l-21.088-21.088 21.209-21.209 21.088 21.088c5.857 5.857 15.355 5.858 21.213 0 5.858-5.858 5.858-15.355 0-21.213l-21.089-21.088 21.209-21.209 21.089 21.089c5.857 5.857 15.355 5.858 21.213 0 5.858-5.858 5.858-15.355 0-21.213L377.793 70.93 405.4 43.323c17.536-17.76 45.709-17.765 63.25 0l.067.068c17.744 17.745 17.758 45.629 0 63.388z" fill-rule="nonzero"/></symbol><symbol id="transferred" viewBox="0 0 512.039 512.039"><path d="M509.067 215.358a10.01 10.01 0 00-9.044-2.732l-86.184 17.345a10.002 10.002 0 00-5.099 16.875l11.66 11.66-45.762 45.762-35.426-35.426a10.003 10.003 0 00-14.142 0l-43.47 43.471 16.306-58.59c3.964-14.243 1.108-29.163-7.835-40.936-5.478-7.21-12.71-12.526-20.886-15.572l13.035-37.236c3.597.316 7.185.477 10.732.477 28.876 0 57.03-10.178 79.277-28.657l2.383-1.979c11.729-9.745 13.733-26.68 4.565-38.552-4.649-6.021-11.367-9.797-18.917-10.631-7.553-.835-14.933 1.381-20.777 6.236l-2.707 2.249a68.858 68.858 0 01-12.965 8.501c-15.42 7.778-34.676 4.314-47.471-8.349 18.612-5.765 32.17-23.139 32.17-43.621C308.511 20.48 288.03 0 262.856 0c-25.175 0-45.655 20.48-45.655 45.654 0 10.018 3.251 19.286 8.742 26.822a52.096 52.096 0 00-26.885 15.162 9.99 9.99 0 00-1.179 1.208c-17.629 21.654-41.131 37.186-67.964 44.915-7.265 2.094-13.015 6.918-16.466 13.034l-20.496-20.496c-8.968-8.967-23.558-8.966-32.527 0l-26.823 26.824L6.78 179.946A22.845 22.845 0 00.043 196.21a22.856 22.856 0 006.736 16.264l73.905 73.905a22.851 22.851 0 0016.264 6.736c6.145 0 11.92-2.393 16.264-6.736l27.773-27.773-13.169 34.532c-1.968 5.16.62 10.939 5.78 12.907a9.983 9.983 0 003.562.659c4.028 0 7.825-2.452 9.346-6.439l32.798-86.001H252.735c8.479 0 16.282 3.872 21.411 10.623s6.767 15.307 4.493 23.474l-22.723 81.646a8.552 8.552 0 01-8.214 6.24c-3.422 0-5.532-1.874-6.485-2.991s-2.473-3.496-1.936-6.874l12.091-76.012a9.999 9.999 0 00-9.876-11.571h-23.708a10 10 0 00-8.924 5.486c-.584 1.154-58.605 115.875-78.157 154.639-1.957 3.882-6.212 6.097-10.575 5.5l-.474-.064c-2.977-.402-5.563-2.114-7.098-4.697s-1.8-5.674-.729-8.48l6.162-16.157c1.968-5.16-.62-10.938-5.78-12.907-5.159-1.968-10.938.621-12.907 5.78l-6.162 16.157c-3.259 8.546-2.449 17.957 2.222 25.821 4.671 7.863 12.548 13.077 21.604 14.303l.474.063c1.371.187 2.737.276 4.094.276 11.322 0 21.852-6.326 27.027-16.588 17.078-33.86 63.524-125.706 75.372-149.132h5.843l-10.25 64.441a28.485 28.485 0 006.476 23 28.483 28.483 0 0013.02 8.649L127.629 466.286a10.003 10.003 0 000 14.142l28.683 28.682c1.953 1.952 4.512 2.929 7.071 2.929s5.118-.977 7.071-2.929l55.141-55.141c3.905-3.905 3.905-10.237 0-14.143-3.906-3.904-10.236-3.904-14.143 0l-48.069 48.07-14.54-14.54 183.3-183.302 35.426 35.426a10.003 10.003 0 0014.142 0l59.903-59.904c3.905-3.905 3.905-10.237 0-14.143l-5.538-5.538 53.149-10.696-10.696 53.149-8.231-8.231c-3.906-3.904-10.236-3.904-14.143 0l-81.516 81.516-35.426-35.426c-3.906-3.904-10.236-3.904-14.143 0l-57.051 57.051c-3.905 3.905-3.905 10.237 0 14.143 3.906 3.904 10.236 3.904 14.143 0l49.979-49.979 35.426 35.426c3.906 3.904 10.236 3.904 14.143 0l81.516-81.516 14.354 14.354a9.999 9.999 0 0016.875-5.099l17.345-86.185a10.004 10.004 0 00-2.733-9.044zM262.856 20c14.146 0 25.654 11.509 25.654 25.654 0 14.146-11.509 25.655-25.654 25.655-14.146 0-25.655-11.509-25.655-25.655C237.201 31.509 248.71 20 262.856 20zm-98.952 177.25l-12.17-12.17a193.284 193.284 0 0017.015-6.456l-4.845 18.626zm-33.749-34.688c-1.182-4.102 1.195-8.4 5.297-9.582a155.984 155.984 0 0045.586-21.597l-5.647 21.71a172.464 172.464 0 01-35.657 14.765 8.385 8.385 0 01-.712.17c-1.845.351-3.691-.016-5.241-.9l-2.929-2.929a7.61 7.61 0 01-.697-1.637zm-55.588-22.121c.585-.585 1.354-.877 2.122-.877s1.537.292 2.121.877l36.452 36.452a27.489 27.489 0 005.978 5.978l31.476 31.476a3.002 3.002 0 010 4.242l-19.752 19.752-21.967-21.967 4.184-4.184c3.905-3.905 3.905-10.237 0-14.143l-22.51-22.51c-3.906-3.904-10.236-3.904-14.143 0l-4.184 4.184-19.529-19.529 19.752-19.751zm13.688 70.391a3.74 3.74 0 01-2.655 1.101c-.58 0-1.697-.144-2.654-1.1v-.001l-3.059-3.058a3.743 3.743 0 01-1.1-2.654 3.74 3.74 0 011.101-2.655l5.712-5.712 8.367 8.367-5.712 5.712zm10.814 61.405a2.944 2.944 0 01-2.121.878 2.942 2.942 0 01-2.121-.879l-73.905-73.905a2.943 2.943 0 01-.879-2.121c0-.567.152-1.395.879-2.121l19.751-19.752L61.137 194.8a23.667 23.667 0 00-2.35 10.32 23.6 23.6 0 006.958 16.797l3.058 3.057v.001a23.601 23.601 0 0016.797 6.958c3.634 0 7.142-.814 10.32-2.35l22.902 22.902-19.753 19.752zm142.842-77.973h-56.564l20.543-78.973c3.674-14.12 16.429-23.981 31.019-23.981 9.013 0 17.35 3.634 23.475 10.233 18.788 20.244 48.577 25.975 72.436 13.938a88.789 88.789 0 0016.738-10.974l2.707-2.249a7.66 7.66 0 015.801-1.74 7.685 7.685 0 015.283 2.975c2.513 3.253 1.832 8.163-1.516 10.944l-2.382 1.979c-18.664 15.504-42.28 24.042-66.498 24.042-5.259 0-10.634-.421-15.977-1.252A9.991 9.991 0 00266 145.783l-16.972 48.481h-7.117z"/><path d="M246.996 408.8c-2.63 0-5.21 1.069-7.07 2.93a10.072 10.072 0 00-2.93 7.07c0 2.64 1.069 5.21 2.93 7.069 1.86 1.87 4.44 2.931 7.07 2.931s5.21-1.061 7.069-2.931a10.057 10.057 0 002.931-7.069c0-2.631-1.07-5.211-2.931-7.07a10.067 10.067 0 00-7.069-2.93zM122.886 344.14c2.63 0 5.21-1.07 7.07-2.931 1.859-1.859 2.93-4.439 2.93-7.069s-1.07-5.21-2.93-7.07c-1.87-1.86-4.44-2.93-7.07-2.93s-5.21 1.069-7.08 2.93c-1.859 1.86-2.92 4.44-2.92 7.07s1.061 5.21 2.92 7.069a10.1 10.1 0 007.08 2.931z"/></symbol><symbol id="vacation" viewBox="0 0 512 512"><path d="M502 492c-11.38 0-18.096-5.597-26.599-12.683C465.661 471.2 454.62 462 436 462h-.59c-20.026 0-39.147-9.594-51.148-25.664C356.82 399.6 314.042 375.222 266 372.307V201.264c22.087 5.301 42.7 25.58 42.929 25.807A10.09 10.09 0 00316 230c2.532 0 5.121-.988 7.063-2.92.271-.27 27.51-27.08 52.937-27.08s52.666 26.81 52.929 27.071C435.184 233.326 446 228.939 446 220c0-30.507-7.406-60.837-21.417-87.713a10 10 0 00-13.49-4.244c-4.897 2.553-6.798 8.593-4.244 13.49 9.283 17.808 15.224 36.692 17.751 56.375C411.952 189.219 394.236 180 376 180c-19.119 0-37.66 10.132-50.394 19.163-1.65-43.903-10.197-109.004-34.23-145.471a168.832 168.832 0 0159.186 25.013c4.586 3.076 10.798 1.853 13.875-2.734s1.853-10.799-2.734-13.875C333.161 42.954 300.263 32.044 266 30.264V10c0-5.522-4.478-10-10-10s-10 4.478-10 10v20.263C145.864 35.481 66 118.588 66 220a9.997 9.997 0 006.166 9.229c3.731 1.549 8.032.7 10.896-2.149.272-.27 27.511-27.08 52.938-27.08s52.666 26.81 52.929 27.071A10.101 10.101 0 00196 230c2.545 0 5.168-1.026 7.071-2.929 6.363-6.364 24.622-21.303 42.929-25.78v171.016c-48.014 2.913-90.801 27.269-118.263 64.03C107.301 463.707 76.283 461.932 76 462c-18.62 0-29.661 9.2-39.401 17.317C28.096 486.403 21.38 492 10 492c-5.522 0-10 4.478-10 10s4.478 10 10 10c18.62 0 29.661-9.2 39.401-17.317C57.904 487.597 64.62 482 76 482c10.857 0 15.921 5.063 22.929 12.071C106.917 502.059 116.857 512 136 512s29.083-9.941 37.071-17.929C180.079 487.063 185.143 482 196 482s15.921 5.063 22.929 12.071C226.917 502.059 236.857 512 256 512s29.083-9.941 37.071-17.929C300.079 487.063 305.143 482 316 482s15.921 5.063 22.929 12.071C346.917 502.059 356.857 512 376 512s29.083-9.941 37.071-17.929C420.079 487.063 425.143 482 436 482c11.38 0 18.096 5.597 26.599 12.683C472.339 502.8 483.38 512 502 512c5.522 0 10-4.478 10-10s-4.478-10-10-10zM186.394 199.163C173.66 190.132 155.119 180 136 180c-18.221 0-35.923 9.204-48.568 17.887 9.345-71.608 63.425-129.356 133.185-144.183-24.046 36.497-32.577 101.641-34.223 145.459zm20.022-.571C210.023 105.983 236.577 50 256 50s45.977 55.983 49.584 148.592C292.881 189.71 274.717 180 256 180s-36.881 9.71-49.584 18.592zm192.513 281.337C391.921 486.937 386.857 492 376 492s-15.921-5.063-22.929-12.071C345.083 471.941 335.143 462 316 462s-29.083 9.941-37.071 17.929C271.921 486.937 266.857 492 256 492s-15.921-5.063-22.929-12.071C225.083 471.941 215.143 462 196 462s-29.083 9.941-37.071 17.929C151.921 486.937 146.857 492 136 492s-15.921-5.063-22.929-12.071c-1.411-1.411-2.884-2.882-4.457-4.349 13.792-5.723 26.036-15.073 35.147-27.275C170.492 412.522 211.402 392 256 392s85.508 20.522 112.237 56.304c9.113 12.202 21.357 21.553 35.149 27.276-1.573 1.467-3.046 2.938-4.457 4.349z"/><circle cx="390" cy="100" r="10"/></symbol><symbol id="vacation1" viewBox="0 0 512 512"><path d="M0 436c0 5.522 4.477 10 10 10h50v46H40c-5.523 0-10 4.478-10 10s4.477 10 10 10h60c5.523 0 10-4.478 10-10s-4.477-10-10-10H80v-46h166v46h-20c-5.523 0-10 4.478-10 10s4.477 10 10 10h60c5.522 0 10-4.478 10-10s-4.478-10-10-10h-20v-46h166v46h-20c-5.522 0-10 4.478-10 10s4.478 10 10 10h60c5.522 0 10-4.478 10-10s-4.478-10-10-10h-20v-46h20c22.056 0 40-17.944 40-40s-17.944-40-40-40h-86v-20c0-22.056-17.944-40-40-40h-80V201.264c15.181 3.643 32.154 15.38 43.065 25.931a10.003 10.003 0 0013.997-.115c.272-.27 27.511-27.08 52.938-27.08s52.666 26.81 52.929 27.071A10.001 10.001 0 00446 220c0-30.507-7.406-60.837-21.417-87.713-2.553-4.896-8.591-6.797-13.49-4.244-4.897 2.553-6.798 8.593-4.244 13.49 9.283 17.808 15.224 36.692 17.751 56.375C411.952 189.219 394.236 180 376 180c-19.119 0-37.66 10.132-50.394 19.163-1.65-43.903-10.198-109.004-34.23-145.471a168.82 168.82 0 0159.185 25.013c4.586 3.075 10.799 1.853 13.875-2.734 3.077-4.587 1.853-10.799-2.734-13.875C333.161 42.954 300.263 32.044 266 30.264V10c0-5.522-4.478-10-10-10s-10 4.478-10 10v20.263C145.864 35.481 66 118.588 66 220a9.997 9.997 0 006.166 9.229c3.731 1.549 8.032.7 10.896-2.149.272-.27 27.512-27.08 52.938-27.08s52.666 26.81 52.929 27.071c3.825 3.825 10.192 3.951 14.143 0 6.363-6.364 24.622-21.303 42.929-25.78V306H86.675l-18.003-18.07C61.091 280.348 50.641 276 40 276c-22.056 0-40 17.944-40 40 0 10.641 4.348 21.091 11.929 28.671L93.257 426H10c-5.523 0-10 4.478-10 10zm346-110c11.028 0 20 8.972 20 20v20H266v-40zM186.394 199.163C173.66 190.132 155.119 180 136 180c-18.22 0-35.923 9.204-48.568 17.887 9.345-71.608 63.425-129.356 133.185-144.183-24.047 36.498-32.577 101.641-34.223 145.459zm20.022-.571C210.023 105.983 236.576 50 256 50c19.423 0 45.977 55.983 49.584 148.592C292.881 189.71 274.717 180 256 180s-36.881 9.71-49.584 18.592zM246 326v40h-99.547l-39.852-40zm-219.929 4.528C22.27 326.728 20 321.296 20 316c0-11.028 8.972-20 20-20 5.296 0 10.728 2.27 14.516 6.058l80.7 81A9.996 9.996 0 00142.3 386H472c11.028 0 20 8.972 20 20s-8.972 20-20 20H121.542z"/><circle cx="390" cy="100" r="10"/></symbol><symbol id="working" viewBox="0 0 128 128"><path d="M91.514 13.05l-5.683 5.683a6.188 6.188 0 000 8.744l14.692 14.692a6.188 6.188 0 008.744 0l5.683-5.684a1.75 1.75 0 000-2.474L93.989 13.05a1.8 1.8 0 00-2.475 0zm19.724 22.2l-4.446 4.446a2.752 2.752 0 01-3.794 0L88.306 25a2.687 2.687 0 010-3.794l4.445-4.446z"/><path d="M127.487 34.011L93.989.513a1.749 1.749 0 00-2.475 0L79.562 12.465a15.048 15.048 0 000 21.28l2.289 2.289L43.5 74.386 29.261 60.147a1.75 1.75 0 00-2.474 0L13.333 73.6a45.339 45.339 0 00-9.75 49.884 1.756 1.756 0 00.932.932 45.353 45.353 0 0049.884-9.75l13.454-13.453a1.749 1.749 0 000-2.475L53.614 84.5l38.352-38.351 2.288 2.289a15.049 15.049 0 0021.281 0l11.952-11.953a1.748 1.748 0 000-2.474zM64.141 99.977l-12.216 12.215a41.847 41.847 0 01-45.389 9.273 41.845 41.845 0 019.272-45.39l12.216-12.216 13 13-6.066 6.066a6.937 6.937 0 000 9.809l.306.306a6.935 6.935 0 009.809 0l6.066-6.066zm-21.393-9.56a3.652 3.652 0 01-5.165-5.165l7.154-7.152 39.589-39.591 5.165 5.165zm70.312-44.454a11.548 11.548 0 01-16.331 0l-3.524-3.524-7.642-7.639-3.526-3.526a11.548 11.548 0 010-16.331L92.751 4.225l31.024 31.023z"/><path d="M14.641 94.852a1.746 1.746 0 00-2.175 1.181 34.291 34.291 0 00-.256 18.514 1.75 1.75 0 003.383-.9 30.788 30.788 0 01.23-16.625 1.748 1.748 0 00-1.182-2.17z"/></symbol></svg>